<svg width="119" height="119" viewBox="0 0 119 119" fill="none" xmlns="http://www.w3.org/2000/svg">
<g clip-path="url(#clip0_314_424)">
<path d="M118.535 59.5C118.535 77.1483 110.791 92.9877 98.5165 103.806C97.7859 104.45 95.1964 103.233 94.4344 103.841C84.3456 111.886 73.521 118.485 59.6144 118.485C38.6268 118.485 21.9302 105.737 11.4614 89.236C10.8908 88.3366 8.49498 89.2695 7.97263 88.338C3.18966 79.8098 0.462402 69.9734 0.462402 59.5C0.462402 26.8944 26.8937 0.462341 59.4986 0.462341C92.1036 0.462341 118.535 26.8944 118.535 59.5Z" fill="#3493F8"/>
<path d="M108.301 59.6063C108.301 86.5582 86.4525 108.407 59.5014 108.407C32.5502 108.407 10.7021 86.5582 10.7021 59.6063C10.7021 32.6545 32.5502 10.8055 59.5014 10.8055C86.4525 10.8055 108.301 32.6545 108.301 59.6063Z" fill="#55A4F9"/>
<path d="M45.2991 38.4655C45.2002 38.8463 44.9548 39.1535 44.6186 39.3905C42.6798 40.7572 41.0668 42.6369 39.7837 44.7464C37.9367 47.7826 35.7359 51.0525 33.82 53.8455C32.7448 55.4128 31.7809 56.6431 30.9108 57.5924L32.7864 77.3826C26.7502 82.735 19.2481 86.5743 10.7875 88.1916L9.69919 56.8756C8.31734 55.7781 6.79965 53.426 5.07096 49.0086C1.80382 40.6601 -0.979478 28.0961 1.28678 27.1621C2.54387 26.6442 5.09033 29.8128 7.66654 34.1623C6.37371 25.8965 5.92447 16.3829 7.61511 16.0299C9.58134 15.6194 13.6978 27.7574 15.4814 36.5756C15.5368 36.8498 15.5893 37.1176 15.6392 37.3791L16.263 37.3355L16.8693 37.2931C16.5865 35.4777 16.3554 33.3941 16.1915 31.0478C15.4833 20.9219 16.2927 9.74234 18.2458 9.60582C20.1991 9.46907 22.5567 20.4272 23.2649 30.5531C23.4289 32.8994 23.4902 34.995 23.4628 36.8319L24.5077 36.7588C24.5324 36.4603 24.5601 36.1536 24.5907 35.8384C25.4595 26.8859 28.3791 14.4029 30.4654 14.6222C32.5518 14.8415 33.0147 27.6799 32.1462 36.6324C31.883 39.3449 31.5277 41.3895 31.1024 42.9157C35.2069 38.674 40.0217 35.1693 42.368 34.7962C42.6692 34.7226 42.9729 34.7203 43.2678 34.7994C44.6877 35.1804 45.8812 36.2249 45.2991 38.4655Z" fill="#915041"/>
<path d="M29.0503 46.6314C28.504 47.0112 27.9208 47.1056 27.32 47.0424C25.2337 46.823 23.7222 44.7911 24.5909 35.8386C25.4597 26.8861 28.3793 14.4031 30.4656 14.6224C30.9594 14.6743 31.3623 15.4332 31.6782 16.6802C29.9493 20.5647 28.168 29.1786 27.5218 35.8386C26.8318 42.9471 27.6427 45.6921 29.0503 46.6314ZM10.8693 36.2964C9.59698 30.0061 8.75985 21.688 9.09793 17.2867C8.53638 16.412 8.0281 15.8228 7.61507 15.909C5.64884 16.3197 6.45899 29.1263 8.24258 37.9446C10.0262 46.7629 12.1079 48.3746 14.0742 47.9641C14.8758 47.7967 15.554 47.3387 15.9555 46.2576C14.201 46.2075 12.4633 44.1767 10.8693 36.2964ZM19.1945 28.261C18.751 21.9205 18.9026 15.1669 19.5575 10.9701C19.1154 10.0721 18.6713 9.49051 18.2462 9.52026C16.2929 9.65678 15.3753 20.9221 16.0833 31.048C16.7913 41.1739 18.8574 46.4116 20.8107 46.2751C21.6626 46.2156 22.3731 45.1432 22.8447 43.1127C21.2438 41.7479 19.7849 36.7034 19.1945 28.261ZM13.2054 57.9131C13.1533 56.416 12.6496 54.964 11.7316 53.7803C10.5667 52.2783 9.31263 49.9357 7.93978 46.4273C5.67098 40.6296 3.61066 33.0126 2.98407 27.8261C2.30191 27.2398 1.72053 26.985 1.2902 27.1624C-0.97606 28.0964 1.80724 40.6601 5.07438 49.0088C6.44285 52.5059 7.67941 54.7085 8.82073 56.0191C9.40695 56.6922 9.72636 57.5568 9.75749 58.4488L10.7911 88.1921C11.9471 87.9711 13.0944 87.7066 14.2305 87.3992L13.2054 57.9131ZM22.1877 58.7009C22.3215 58.6917 22.4516 58.653 22.5686 58.5873C22.6856 58.5217 22.7866 58.4309 22.8642 58.3215C22.9418 58.212 22.9941 58.0867 23.0173 57.9546C23.0406 57.8225 23.0341 57.6869 22.9985 57.5575C21.6261 52.5631 24.5725 47.3832 29.5667 46.0106C29.6813 45.9791 29.7887 45.9253 29.8825 45.8523C29.9764 45.7793 30.0549 45.6886 30.1137 45.5852C30.1725 45.4819 30.2103 45.368 30.2251 45.25C30.2399 45.132 30.2312 45.0123 30.1997 44.8976C30.1682 44.783 30.1144 44.6757 30.0415 44.5818C29.9685 44.488 29.8777 44.4094 29.7744 44.3506C29.671 44.2918 29.5571 44.254 29.4391 44.2392C29.3212 44.2245 29.2014 44.2331 29.0868 44.2646C23.1297 45.9017 19.6154 52.0802 21.2525 58.0372C21.3078 58.2388 21.4312 58.415 21.6016 58.536C21.7721 58.657 21.9792 58.7152 22.1877 58.7009Z" fill="#784132"/>
<path d="M7.97262 88.338L7.69426 80.4358C7.6735 79.8385 7.8854 79.2565 8.28531 78.8124C8.68522 78.3683 9.24191 78.0968 9.83807 78.0551L17.5298 77.5171L32.6326 76.4606C33.2329 76.4187 33.8258 76.613 34.2848 77.0021C34.7438 77.3913 35.0326 77.9445 35.0893 78.5436L38.4291 113.781C38.4741 114.256 37.9993 114.609 37.5562 114.431C24.9787 109.393 14.5385 100.045 7.97262 88.338Z" fill="#FFC14F"/>
<path d="M13.4744 96.4937C11.4247 93.9457 9.58209 91.2078 7.97262 88.3378L7.69426 80.4355C7.6735 79.8382 7.8854 79.2562 8.28531 78.8122C8.68522 78.3681 9.24191 78.0966 9.83807 78.0549L13.7113 77.7839C13.1601 78.6414 12.8844 79.6471 12.9212 80.6659L13.4744 96.4937Z" fill="#FFB52D"/>
<path d="M69.9293 28.8401C68.8726 33.906 67.7479 36.5415 66.5928 37.7815L66.1368 69.4183C59.5546 74.0829 51.6798 77.084 43.0935 77.7721L44.9693 52.5259C45.0491 51.4508 44.7403 50.3911 44.1349 49.4991C43.1624 48.0656 42.1922 45.7619 41.2313 42.2082C38.8907 33.5538 37.4895 20.7618 39.8439 20.0799C41.3493 19.6438 44.0254 24.2639 46.3717 29.915C46.2775 29.1702 46.1968 28.4238 46.1295 27.6761C45.3148 18.7163 45.7834 5.88733 47.7828 5.69292C49.782 5.49851 52.555 18.012 53.3695 26.9721C53.3949 27.2507 53.4179 27.5225 53.4389 27.788L54.0636 27.8124L54.6711 27.8362C54.5874 26.0009 54.5841 23.9044 54.6759 21.5542C55.0726 11.4113 57.0921 0.38599 59.0486 0.462555C61.0052 0.539119 62.1578 11.6882 61.7611 21.8312C61.6694 24.1814 61.5022 26.2712 61.2755 28.0942L62.322 28.1351C62.379 27.841 62.4398 27.5392 62.5044 27.2292C64.3408 18.4243 68.6 6.33242 70.6502 6.77728C72.7011 7.22236 71.7659 20.0351 69.9293 28.8401Z" fill="#FFBEAA"/>
<path d="M66.0336 38.2229C65.3616 38.6952 64.6815 38.7579 64.0007 38.6103C61.9505 38.1657 60.4799 35.7924 62.3163 26.9873C64.1527 18.1824 68.601 6.24549 70.6512 6.69012C71.1154 6.79089 71.4175 7.55492 71.5997 8.73429C69.4735 12.4843 66.8318 20.7173 65.4845 27.1764C63.9527 34.5206 64.5902 37.2585 66.0336 38.2229ZM50.7332 38.0866C51.8772 37.9755 52.8419 37.2686 53.3054 35.0053C51.3895 35.0614 49.694 33.1809 48.9071 24.5287C48.3825 18.7575 48.3714 11.4 48.9775 6.82849C48.5575 6.04923 48.1459 5.55226 47.7633 5.58962C45.7641 5.78403 45.2228 18.663 46.0374 27.6229C46.8523 36.5832 48.7339 38.2812 50.7332 38.0866ZM57.6129 37.1932C58.4306 37.2253 59.2203 36.3187 59.8914 34.5121C58.4509 32.9757 57.5511 27.8044 57.8813 19.3562C58.1352 12.8639 59.054 6.01003 60.1955 1.93759C59.8558 1.01143 59.471 0.479403 59.0489 0.462799C57.0924 0.386234 55.0726 11.4115 54.6762 21.5545C54.2798 31.6974 55.6563 37.1169 57.6129 37.1932ZM47.9565 51.2497C48.0363 50.1746 47.7275 49.1149 47.1222 48.2229C46.1497 46.7894 45.1795 44.486 44.2185 40.9319C42.4444 34.3716 41.2099 25.4869 41.7419 21.2487C41.0378 20.2847 40.2491 19.7672 39.7337 19.9166C37.3793 20.5986 38.8908 33.501 41.2313 42.1554C42.1925 45.7094 43.1625 48.0128 44.135 49.4463C44.7401 50.3383 45.0492 51.398 44.9694 52.4731L43.0935 77.7193C48.5393 77.2828 46.1979 74.9185 46.1979 74.9185L47.9565 51.2497ZM62.8283 38.3963C56.7287 39.3764 52.5635 45.1361 53.5434 51.2359C53.5816 51.4729 53.7122 51.6851 53.9068 51.8258C54.1013 51.9665 54.3437 52.0242 54.5807 51.9863C54.6981 51.9674 54.8107 51.9256 54.9119 51.8633C55.0132 51.801 55.1011 51.7193 55.1708 51.6229C55.2404 51.5266 55.2904 51.4174 55.3179 51.3018C55.3454 51.1861 55.3498 51.0661 55.3309 50.9487C54.5095 45.8348 58.0015 41.006 63.1151 40.1843C63.2325 40.1654 63.3451 40.1237 63.4463 40.0613C63.5475 39.999 63.6355 39.9173 63.7052 39.8209C63.7748 39.7246 63.8248 39.6154 63.8523 39.4998C63.8798 39.3841 63.8842 39.2641 63.8653 39.1467C63.8466 39.0294 63.8049 38.9168 63.7426 38.8155C63.6803 38.7143 63.5986 38.6263 63.5023 38.5566C63.406 38.4869 63.2969 38.4369 63.1812 38.4094C63.0656 38.3819 62.9456 38.3774 62.8283 38.3963Z" fill="#FAA68E"/>
<path d="M43.2515 67.5923L50.9561 67.8935L66.0843 68.485C66.6856 68.5085 67.2539 68.7661 67.6678 69.2029C68.0818 69.6396 68.3087 70.2208 68.3001 70.8225L67.6204 117.993C67.62 118.02 67.61 118.046 67.5921 118.066C67.5742 118.086 67.5496 118.099 67.5229 118.103C64.8989 118.457 62.2203 118.538 59.4986 118.538C51.7386 118.538 44.3282 117.147 37.5405 114.425L40.8616 69.7257C40.9059 69.1297 41.1798 68.5743 41.6257 68.1763C42.0715 67.7783 42.6543 67.5689 43.2515 67.5923Z" fill="#0956C6"/>
<path d="M41.9485 115.991C40.4589 115.528 38.9884 115.006 37.5405 114.425L40.8616 69.7257C40.9059 69.1297 41.1798 68.5743 41.6257 68.1763C42.0715 67.7783 42.6543 67.5689 43.2515 67.5923L46.5408 67.721C46.2102 67.9449 45.9347 68.2407 45.7349 68.5863C45.535 68.932 45.416 69.3183 45.3868 69.7165L41.9485 115.991Z" fill="#0A4499"/>
<path d="M105.632 54.3501C104.036 59.2728 102.635 61.7722 101.353 62.881L97.4988 94.2856C90.4532 98.2155 82.3014 100.352 73.6907 100.113L78.2813 75.1518C78.4688 74.1325 78.2894 73.0855 77.7966 72.1739C76.971 70.647 76.2434 68.238 75.6624 64.5553C74.2658 55.6994 74.2481 42.831 76.6622 42.406C77.8316 42.2001 79.3574 44.9523 80.7784 48.8515C81.0602 49.6248 81.6356 50.0634 82.1012 50.3025C82.2933 41.3297 84.1177 28.9348 86.1017 28.9561C88.1104 28.9777 89.5218 41.7169 89.3684 50.7126C89.3637 50.9855 89.3575 51.2584 89.3497 51.5313L89.9682 51.6226L90.5694 51.7114C90.6836 49.8777 90.9057 47.793 91.2498 45.4663C92.7345 35.4248 95.9278 24.6807 97.8647 24.9671C99.8017 25.2535 99.7491 36.4621 98.2644 46.5036C97.9203 48.8303 97.5297 50.8901 97.1083 52.6781L98.1445 52.8312C98.2328 52.5453 98.3257 52.2517 98.4233 51.9503C101.196 43.3937 106.73 31.83 108.721 32.4928C110.711 33.1556 108.404 45.7935 105.632 54.3501Z" fill="#E3A76F"/>
<path d="M85.0105 49.509C84.9632 52.2799 84.9962 54.3346 85.1232 55.8521C85.275 57.665 82.4991 58.1047 82.2784 56.0472C82.125 54.6192 81.9486 52.9496 81.9862 50.743C82.1395 41.7474 84.0935 28.7817 86.102 28.8034C86.3127 28.8057 86.5171 29.1007 86.7136 29.3643C85.3151 33.2755 85.1269 42.6777 85.0105 49.509ZM108.721 32.493C106.73 31.8305 101.196 43.394 98.4233 51.9505C97.6856 54.2269 97.2179 56.0613 96.966 57.54C96.6478 59.408 99.2489 59.7479 99.5173 57.9539C99.7487 56.4074 100.233 54.4444 101.041 51.9505C103.153 45.4331 106.867 37.1708 109.397 33.8959C109.294 33.109 109.075 32.6111 108.721 32.493ZM98.9344 26.946C98.6906 25.7549 98.3368 25.037 97.865 24.9673C95.928 24.6809 92.7347 35.4251 91.25 45.4665C90.4659 50.7693 90.3151 54.8157 90.6326 57.4959C90.9163 59.8911 93.6952 58.8978 93.5483 57.8561C93.1717 55.1842 93.299 51.0126 94.1191 45.4665C95.2002 38.1565 97.1865 30.4742 98.9344 26.946ZM79.8682 64.5553C78.8724 58.2399 78.5774 49.8838 79.3659 45.4552C78.3971 43.4678 77.449 42.2674 76.6624 42.406C74.2483 42.8311 74.2663 55.6994 75.6627 64.5553C76.2434 68.238 76.9712 70.647 77.7968 72.1739C78.2896 73.0855 78.469 74.1325 78.2816 75.1519L73.6909 100.113C75.1106 100.153 76.518 100.128 77.9098 100.04L82.4871 75.1519C82.6746 74.1325 82.4951 73.0855 82.0023 72.1739C81.1767 70.647 80.4489 68.238 79.8682 64.5553Z" fill="#D6995C"/>
<path d="M99.4984 95.9142L98.5519 103.775C90.8205 110.589 81.2624 115.525 70.7332 117.573C69.1782 117.876 67.8037 116.523 68.0904 114.964L72.3371 91.8736C72.4452 91.2858 72.7772 90.763 73.2632 90.4152C73.7492 90.0674 74.3512 89.9219 74.9424 90.0093L82.57 91.137L97.5469 93.3516C98.1422 93.4398 98.6794 93.7572 99.0439 94.2359C99.4085 94.7147 99.5716 95.3169 99.4984 95.9142Z" fill="#FF72C3"/>
<path d="M72.2523 117.262C70.6845 117.608 69.1032 117.889 67.5125 118.104L72.3367 91.8736C72.4448 91.2859 72.7769 90.7631 73.2629 90.4154C73.7488 90.0677 74.3508 89.9222 74.942 90.0095L77.8207 90.4353C77.3486 90.7827 77.027 91.2972 76.9216 91.8738L72.2523 117.262Z" fill="#FF50B5"/>
<path d="M39.3874 45.8602C32.906 47.0857 23.8472 48.7279 10.7106 50.7368C7.49396 51.2287 4.15096 51.6948 0.917955 52.1309C0.449113 45.0775 0.66889 39.9867 0.66889 32.6229C0.709248 32.7038 2.0768 33.3159 7.92176 32.4995C20.4188 30.754 29.1262 29.0901 35.4248 27.8553C37.117 27.5235 40.8839 45.5772 39.3874 45.8602Z" fill="#D63030"/>
<path d="M118.527 57.1244C115.976 57.4074 109.938 56.8442 109.544 56.8375C95.2292 56.5903 86.612 52.7939 79.0091 49.4444C73.7437 47.1247 68.7702 44.9336 61.6783 43.8109C55.2421 42.7919 53.8851 43.0522 43.325 45.0786C41.8506 45.3622 40.3757 45.6434 38.9004 45.9222C33.2273 46.9928 27.9771 42.6413 27.9771 36.8678C27.9771 32.4628 31.0961 28.6733 35.4186 27.8256C37.0502 27.5055 38.5187 27.2149 39.8492 26.9596C51.1353 24.7944 54.9376 24.0652 64.5626 25.5884C74.0181 27.0851 80.6213 29.9941 86.4471 32.5608C93.325 35.5909 99.2652 38.2079 109.863 38.3908C111.4 38.4175 116.992 38.373 118.538 38.2582C118.538 43.9389 118.527 50.7449 118.527 57.1244Z" fill="#F44545"/>
<path d="M116.887 54.9504C118.192 55.6275 119.133 56.9042 118.084 58.9673C117.905 59.3178 117.6 59.5653 117.22 59.7244C115.033 60.6422 113.054 62.1316 111.347 63.9158C108.891 66.4842 106.039 69.2048 103.567 71.5204C97.2821 77.4092 94.7172 77.0379 93.1587 75.0756C91.6004 73.1133 91.6387 70.303 97.9237 64.4142C103.412 59.2717 112.705 54.5588 116.009 54.7537C116.319 54.747 116.616 54.81 116.887 54.9504Z" fill="#E3A76F"/>
<path d="M118.475 56.7796C118.314 56.7399 118.148 56.7221 117.982 56.7266C115.38 56.573 109.068 59.461 103.822 63.2057C103.446 63.4742 102.507 63.5226 101.948 62.6785C101.517 62.0268 102.111 61.046 102.547 60.7467C107.644 57.2415 113.524 54.6072 116.012 54.7539C116.322 54.7467 116.619 54.8097 116.89 54.9504C117.65 55.3445 118.305 55.9199 118.475 56.7796ZM99.5462 65.189C94.3738 65.4561 90.3829 69.8816 90.6498 75.0543C90.6592 75.2924 90.5745 75.5246 90.4139 75.7006C90.2533 75.8766 90.0298 75.9822 89.7918 75.9945C89.5538 76.0068 89.3206 75.9248 89.1427 75.7663C88.9648 75.6077 88.8566 75.3855 88.8415 75.1477C88.523 68.978 93.2832 63.6992 99.4528 63.3808C99.6889 63.3746 99.9181 63.4609 100.092 63.6213C100.265 63.7817 100.369 64.0035 100.381 64.2394C100.393 64.4752 100.313 64.7065 100.157 64.884C100.001 65.0614 99.7817 65.1708 99.5462 65.189Z" fill="#D6995C"/>
<path d="M83.141 34.2955L79.8157 46.2186C79.7759 46.3654 79.7074 46.5028 79.6142 46.623C79.521 46.7432 79.4049 46.8437 79.2727 46.9188C79.1404 46.994 78.9947 47.0422 78.8437 47.0608C78.6928 47.0793 78.5396 47.0679 78.3932 47.027C78.2467 46.9861 78.1097 46.9167 77.9902 46.8227C77.8706 46.7287 77.7709 46.6119 77.6966 46.4792C77.6224 46.3465 77.5751 46.2003 77.5576 46.0493C77.5401 45.8982 77.5526 45.7452 77.5945 45.599L80.9197 33.6759C80.9596 33.5291 81.0281 33.3917 81.1213 33.2715C81.2145 33.1513 81.3306 33.0508 81.4628 32.9757C81.595 32.9005 81.7408 32.8523 81.8917 32.8337C82.0427 32.8152 82.1958 32.8266 82.3423 32.8675C82.4888 32.9084 82.6257 32.9778 82.7453 33.0718C82.8648 33.1658 82.9646 33.2826 83.0388 33.4153C83.1131 33.5481 83.1603 33.6942 83.1778 33.8452C83.1954 33.9963 83.1829 34.1493 83.141 34.2955ZM52.0118 40.0273C52.087 40.1587 52.1357 40.3036 52.1549 40.4538C52.1741 40.604 52.1636 40.7565 52.1238 40.9026C52.0841 41.0488 52.016 41.1856 51.9234 41.3054C51.8307 41.4252 51.7154 41.5256 51.584 41.6008C51.4526 41.676 51.3077 41.7247 51.1575 41.7439C51.0073 41.7632 50.8547 41.7526 50.7086 41.7129C50.5625 41.6732 50.4256 41.6051 50.3058 41.5124C50.1861 41.4198 50.0857 41.3044 50.0105 41.173L48.7926 39.0453L42.9908 39.9758L42.4908 42.3823C42.4285 42.6817 42.2498 42.9441 41.9941 43.1118C41.7384 43.2795 41.4266 43.3388 41.1272 43.2766C40.9789 43.2458 40.8382 43.1861 40.713 43.1009C40.5878 43.0157 40.4806 42.9067 40.3976 42.7801C40.3145 42.6534 40.2573 42.5117 40.229 42.3629C40.2007 42.2142 40.202 42.0613 40.2329 41.913L42.8893 29.1272L42.8953 29.1C42.9593 28.8228 43.1045 28.5709 43.3125 28.3768C43.5205 28.1827 43.7817 28.0551 44.0627 28.0103L44.0645 28.0101C44.3508 27.9635 44.6445 28.0052 44.9066 28.1295C45.1686 28.2539 45.3866 28.4551 45.5315 28.7063L52.0118 40.0273ZM47.5681 36.9064L44.6777 31.857L43.4928 37.5599L47.5681 36.9064ZM34.7783 37.818V37.8175L33.8907 31.9073C33.8439 31.6061 33.6798 31.3356 33.4342 31.1551C33.1886 30.9746 32.8815 30.8986 32.58 30.9439C32.2786 30.9891 32.0073 31.1519 31.8256 31.3967C31.6438 31.6414 31.5664 31.9481 31.6101 32.2498L32.3264 37.02L26.1365 37.9497L25.4202 33.1794C25.3734 32.8782 25.2093 32.6077 24.9637 32.4272C24.7181 32.2466 24.411 32.1707 24.1095 32.216C23.8081 32.2612 23.5368 32.424 23.3551 32.6687C23.1733 32.9134 23.0958 33.2202 23.1396 33.5218L24.0273 39.4321V39.4325L24.9779 45.7625C25.0246 46.0637 25.1888 46.3341 25.4344 46.5147C25.68 46.6952 25.9871 46.7711 26.2885 46.7259C26.59 46.6806 26.8612 46.5178 27.043 46.2731C27.2247 46.0284 27.3022 45.7217 27.2584 45.42L26.4789 40.23L32.6689 39.3004L33.4484 44.4904C33.4951 44.7916 33.6593 45.062 33.9049 45.2426C34.1505 45.4231 34.4576 45.4991 34.759 45.4538C35.0605 45.4085 35.3317 45.2457 35.5135 45.001C35.6953 44.7563 35.7727 44.4496 35.7289 44.1479L34.7783 37.818ZM17.7102 43.3966C17.5765 43.3255 17.4301 43.2814 17.2794 43.2669C17.1287 43.2524 16.9766 43.2678 16.8318 43.3121C16.6869 43.3563 16.5523 43.4287 16.4354 43.525C16.3186 43.6214 16.2219 43.7398 16.1508 43.8735C16.0632 44.0386 15.964 44.1968 15.8561 44.3432C15.3026 45.0967 14.5026 45.5888 13.4787 45.8065C10.7625 46.3837 8.08318 44.6437 7.50595 41.9273C6.92872 39.2111 8.66872 36.5318 11.3849 35.9546C12.3657 35.7441 13.3871 35.8332 14.3167 36.2101C14.6002 36.3249 14.9176 36.3224 15.1993 36.2032C15.4809 36.0839 15.7036 35.8577 15.8184 35.5742C15.9332 35.2907 15.9307 34.9733 15.8114 34.6917C15.6922 34.4101 15.4659 34.1873 15.1825 34.0725C13.8264 33.5224 12.3364 33.3923 10.9055 33.6989C6.94556 34.5405 4.40855 38.4469 5.25007 42.407C6.09158 46.3671 9.99775 48.9041 13.9579 48.0624C15.5295 47.7285 16.8284 46.9146 17.7144 45.7092C17.8898 45.4699 18.0478 45.2183 18.1869 44.9562C18.258 44.8225 18.3021 44.6761 18.3167 44.5254C18.3312 44.3746 18.3159 44.2225 18.2716 44.0777C18.2274 43.9328 18.155 43.7981 18.0587 43.6813C17.9624 43.5644 17.844 43.4677 17.7102 43.3966ZM111.664 40.7692C111.429 40.5731 111.126 40.4781 110.822 40.5052C110.517 40.5322 110.236 40.6791 110.039 40.9135L106.562 45.0699L104.143 40.1719C104.076 40.0361 103.982 39.9149 103.869 39.8152C103.755 39.7154 103.622 39.6391 103.479 39.5905C103.335 39.542 103.184 39.5221 103.033 39.5322C102.882 39.5422 102.734 39.5819 102.598 39.6489C102.462 39.716 102.341 39.8092 102.241 39.9231C102.142 40.037 102.065 40.1695 102.017 40.3129C101.968 40.4563 101.948 40.6079 101.958 40.759C101.968 40.9101 102.008 41.0577 102.075 41.1935L105.126 47.368L104.398 53.3018C104.36 53.6053 104.445 53.9112 104.633 54.1521C104.822 54.3931 105.098 54.5494 105.401 54.5867L105.404 54.5872C105.708 54.6236 106.013 54.5383 106.253 54.35C106.493 54.1616 106.649 53.8857 106.686 53.5826L107.415 47.645L111.808 42.3936C111.905 42.2775 111.979 42.1433 112.024 41.9988C112.069 41.8543 112.086 41.7023 112.072 41.5514C112.059 41.4006 112.016 41.2539 111.946 41.1196C111.876 40.9854 111.78 40.8663 111.664 40.7692ZM95.9017 37.9808L89.2798 36.2846C88.9845 36.2115 88.6723 36.2581 88.4112 36.4142C88.1501 36.5703 87.9613 36.8232 87.8858 37.1178C87.8103 37.4125 87.8543 37.7251 88.0083 37.9874C88.1622 38.2498 88.4136 38.4407 88.7076 38.5186L90.8881 39.0771L88.1029 49.9511C88.0299 50.2464 88.0764 50.5586 88.2325 50.8197C88.3886 51.0808 88.6415 51.2696 88.9362 51.3451C89.2308 51.4206 89.5434 51.3766 89.8058 51.2226C90.0681 51.0687 90.259 50.8173 90.3369 50.5233L93.122 39.6493L95.3295 40.2148C95.6248 40.2878 95.937 40.2413 96.1981 40.0852C96.4592 39.9291 96.648 39.6762 96.7235 39.3815C96.799 39.0869 96.7549 38.7743 96.601 38.5119C96.4471 38.2496 96.1957 38.0587 95.9017 37.9808ZM62.9354 36.0907L66.5237 40.1682C66.7227 40.3982 66.8227 40.6974 66.8021 41.0008C66.7814 41.3042 66.6418 41.5871 66.4135 41.788C66.1853 41.989 65.8869 42.0916 65.5833 42.0736C65.2798 42.0556 64.9956 41.9184 64.7928 41.6919L60.1193 36.3815V40.9301C60.1193 41.236 59.9978 41.5292 59.7816 41.7455C59.5653 41.9617 59.2721 42.0832 58.9662 42.0832C58.6604 42.0832 58.3671 41.9617 58.1509 41.7455C57.9346 41.5292 57.8132 41.236 57.8132 40.9301V28.5521C57.8132 28.2463 57.9346 27.953 58.1509 27.7367C58.3671 27.5205 58.6604 27.399 58.9662 27.399H62.2594C64.7695 27.399 66.8113 29.3592 66.8113 31.7689C66.8113 33.9582 65.126 35.7763 62.9354 36.0907ZM64.5054 31.7689C64.5054 30.6502 63.4769 29.7051 62.2597 29.7051H60.1272C60.1292 30.4574 60.1318 31.37 60.1318 31.7689C60.1318 32.2426 60.1359 33.1206 60.1396 33.8405C60.8723 33.8369 61.7715 33.8327 62.2597 33.8327C63.4769 33.8327 64.5054 32.8876 64.5054 31.7689Z" fill="#FFF5F5"/>
<path d="M81.1844 28.2269C82.5547 28.7596 83.6275 29.9277 82.8054 32.0918C82.6656 32.4594 82.3884 32.7384 82.0284 32.9374C79.9527 34.0852 78.1449 35.7784 76.6401 37.7361C74.4739 40.5535 71.9309 43.5649 69.7226 46.133C64.1071 52.6634 61.517 52.57 59.7567 50.7866C57.9964 49.0033 57.7324 46.2052 63.3479 39.6749C68.2517 33.972 76.9835 28.2875 80.2901 28.1261C80.5977 28.0858 80.9001 28.1162 81.1844 28.2269Z" fill="#FFBEAA"/>
<path d="M83.0376 30.1555C82.7855 30.0791 82.5198 30.0583 82.2588 30.0946C78.9523 30.256 70.2207 35.9407 65.3166 41.6434C63.9532 43.2289 62.9365 44.5943 62.2036 45.7788C61.7792 46.4646 60.8478 46.624 60.2244 46.1122L60.2034 46.0952C59.9586 45.8949 59.7925 45.6145 59.7346 45.3036C59.6766 44.9926 59.7306 44.6712 59.8868 44.3962C60.6335 43.0817 61.7539 41.5288 63.3479 39.6748C68.2517 33.9719 76.9835 28.2875 80.2901 28.1261C80.5975 28.0857 80.8996 28.1164 81.1842 28.2271C82.0707 28.5714 82.8324 29.1816 83.0376 30.1555Z" fill="#FAA68E"/>
<path d="M67.1796 64.0701H42.9832C42.6773 64.0701 42.3841 63.9486 42.1678 63.7323C41.9516 63.5161 41.8301 63.2228 41.8301 62.917C41.8301 62.6112 41.9516 62.3179 42.1678 62.1016C42.3841 61.8854 42.6773 61.7639 42.9832 61.7639H67.1796C67.4854 61.7639 67.7787 61.8854 67.9949 62.1016C68.2112 62.3179 68.3327 62.6112 68.3327 62.917C68.3327 63.2228 68.2112 63.5161 67.9949 63.7323C67.7787 63.9486 67.4854 64.0701 67.1796 64.0701Z" fill="#FFB52D"/>
<path d="M34.3851 73.0445C34.3851 73.3503 34.2637 73.6436 34.0474 73.8599C33.8312 74.0761 33.5379 74.1976 33.2321 74.1976H9.0354C8.72959 74.1976 8.4363 74.0761 8.22005 73.8599C8.00381 73.6436 7.88232 73.3503 7.88232 73.0445C7.88232 72.7387 8.00381 72.4454 8.22005 72.2292C8.4363 72.0129 8.72959 71.8914 9.0354 71.8914H33.2318C33.3833 71.8914 33.5332 71.9212 33.6732 71.9791C33.8131 72.0371 33.9402 72.122 34.0473 72.2291C34.1544 72.3361 34.2394 72.4633 34.2974 72.6032C34.3553 72.7431 34.3851 72.8931 34.3851 73.0445Z" fill="#4C2C21"/>
<path d="M100.444 90.7793C100.423 90.9292 100.372 91.0734 100.295 91.2037C100.218 91.334 100.116 91.4477 99.9944 91.5385C99.8732 91.6293 99.7354 91.6954 99.5887 91.7329C99.4419 91.7704 99.2893 91.7786 99.1394 91.7571L75.1879 88.3219C74.8851 88.2785 74.6121 88.1166 74.4287 87.8718C74.2454 87.627 74.1667 87.3195 74.2102 87.0167C74.2536 86.714 74.4155 86.4409 74.6603 86.2576C74.905 86.0742 75.2126 85.9956 75.5153 86.039L99.4666 89.4743C99.6165 89.4958 99.7607 89.5466 99.891 89.6238C100.021 89.701 100.135 89.8031 100.226 89.9243C100.317 90.0455 100.383 90.1834 100.42 90.3301C100.458 90.4768 100.466 90.6294 100.444 90.7793Z" fill="#169B62"/>
<path d="M101.766 80.7782C101.733 80.9261 101.672 81.0661 101.585 81.1902C101.498 81.3143 101.388 81.4201 101.26 81.5016C101.133 81.583 100.99 81.6386 100.841 81.665C100.692 81.6914 100.539 81.6882 100.391 81.6555L76.7643 76.4369C76.4703 76.3664 76.2158 76.1833 76.0555 75.927C75.8951 75.6708 75.8418 75.3618 75.907 75.0666C75.9722 74.7714 76.1507 74.5136 76.4041 74.3487C76.6575 74.1838 76.9654 74.125 77.2617 74.1849L100.889 79.4035C101.037 79.4362 101.177 79.4976 101.301 79.5844C101.425 79.6712 101.531 79.7815 101.612 79.9092C101.694 80.0368 101.749 80.1793 101.776 80.3284C101.802 80.4775 101.799 80.6304 101.766 80.7782Z" fill="#F44545"/>
<path d="M66.7237 59.2452L42.7721 55.8099C42.4722 55.7634 42.2027 55.6004 42.0222 55.3565C41.8416 55.1125 41.7645 54.8072 41.8076 54.5067C41.8507 54.2063 42.0105 53.935 42.2524 53.7516C42.4943 53.5682 42.7987 53.4876 43.0996 53.5273L67.0511 56.9625C67.3511 57.0091 67.6205 57.172 67.8011 57.416C67.9817 57.6599 68.0588 57.9653 68.0157 58.2657C67.9726 58.5662 67.8127 58.8375 67.5709 59.0209C67.329 59.2042 67.0246 59.2848 66.7237 59.2452ZM101.196 85.3921C101.183 85.543 101.14 85.6899 101.07 85.8243C101.001 85.9587 100.905 86.0781 100.789 86.1756C100.673 86.2731 100.54 86.3468 100.395 86.3926C100.251 86.4383 100.099 86.4552 99.948 86.4421L75.8404 84.3705C75.6895 84.3576 75.5426 84.315 75.4082 84.2453C75.2738 84.1756 75.1544 84.0801 75.0569 83.9642C74.9594 83.8484 74.8857 83.7144 74.8399 83.5701C74.7942 83.4257 74.7774 83.2738 74.7904 83.1229C74.8033 82.972 74.8459 82.8252 74.9156 82.6907C74.9853 82.5563 75.0808 82.4369 75.1967 82.3394C75.3125 82.2419 75.4465 82.1682 75.5908 82.1225C75.7352 82.0767 75.8871 82.0599 76.038 82.0729L100.146 84.1445C100.45 84.1709 100.732 84.3171 100.929 84.551C101.126 84.785 101.222 85.0875 101.196 85.3921Z" fill="#FFF5F5"/>
</g>
<defs>
<clipPath id="clip0_314_424">
<rect width="118.075" height="118.075" fill="white" transform="translate(0.462402 0.462341)"/>
</clipPath>
</defs>
</svg>
