<svg width="40" height="40" viewBox="0 0 40 40" fill="none" xmlns="http://www.w3.org/2000/svg">
<rect width="40" height="40" rx="8" fill="#F4F0EB"/>
<path d="M28 15H12C11.4477 15 11 15.4477 11 16V24C11 24.5523 11.4477 25 12 25H28C28.5523 25 29 24.5523 29 24V16C29 15.4477 28.5523 15 28 15Z" stroke="#91683A" stroke-width="1.5" stroke-linecap="round" stroke-linejoin="round"/>
<path d="M14 17.5V22.5" stroke="#91683A" stroke-width="1.5" stroke-linecap="round" stroke-linejoin="round"/>
<path d="M22.5 20C22.5 21.3807 21.3807 22.5 20 22.5C18.6193 22.5 17.5 21.3807 17.5 20C17.5 18.6193 18.6193 17.5 20 17.5C21.3807 17.5 22.5 18.6193 22.5 20Z" stroke="#91683A" stroke-width="1.5" stroke-linecap="round" stroke-linejoin="round"/>
<path d="M26 17.5V22.5" stroke="#91683A" stroke-width="1.5" stroke-linecap="round" stroke-linejoin="round"/>
</svg>
