<svg width="24" height="24" viewBox="0 0 24 24" fill="none" xmlns="http://www.w3.org/2000/svg">
<path d="M12 7.33331C7.75758 7.33331 5.33334 12 5.33334 12C5.33334 12 7.75758 16.6666 12 16.6666C16.2424 16.6666 18.6667 12 18.6667 12C18.6667 12 16.2424 7.33331 12 7.33331Z" stroke="#91683A" stroke-width="1.5" stroke-linecap="round" stroke-linejoin="round"/>
<path d="M12 14C13.1046 14 14 13.1046 14 12C14 10.8954 13.1046 10 12 10C10.8954 10 10 10.8954 10 12C10 13.1046 10.8954 14 12 14Z" stroke="#91683A" stroke-width="1.5" stroke-linecap="round" stroke-linejoin="round"/>
<path d="M12 21C16.9706 21 21 16.9706 21 12C21 7.02944 16.9706 3 12 3C7.02944 3 3 7.02944 3 12C3 16.9706 7.02944 21 12 21Z" stroke="#91683A" stroke-width="1.5" stroke-linecap="round" stroke-linejoin="round"/>
</svg>
