<svg width="40" height="40" viewBox="0 0 40 40" fill="none" xmlns="http://www.w3.org/2000/svg">
<rect width="40" height="40" rx="8" fill="#F4F0EB"/>
<path d="M20 29C24.9706 29 29 24.9706 29 20C29 15.0294 24.9706 11 20 11C15.0294 11 11 15.0294 11 20C11 24.9706 15.0294 29 20 29Z" stroke="#91683A" stroke-width="1.5" stroke-linecap="round" stroke-linejoin="round"/>
<path d="M17 24H20H21C21.6667 24 23 23.6 23 22C23 20.4 21.6667 20 21 20H19C18.3333 20 17 19.6 17 18C17 16.4 18.3333 16 19 16H20H23" stroke="#91683A" stroke-width="1.5" stroke-linecap="round" stroke-linejoin="round"/>
<path d="M20 24V26" stroke="#91683A" stroke-width="1.5" stroke-linecap="round" stroke-linejoin="round"/>
<path d="M20 16V14" stroke="#91683A" stroke-width="1.5" stroke-linecap="round" stroke-linejoin="round"/>
</svg>
