<svg width="24" height="24" viewBox="0 0 24 24" fill="none" xmlns="http://www.w3.org/2000/svg">
<path d="M18 4H6C4.89543 4 4 4.89543 4 6V18C4 18.1121 4.00922 18.222 4.02693 18.329C4.18385 19.277 5.0075 20 6 20H18C19.1046 20 20 19.1046 20 18V14.1901V6C20 4.89543 19.1046 4 18 4Z" stroke="#91683A" stroke-width="1.5" stroke-linecap="round" stroke-linejoin="round"/>
<path d="M11 9C11 10.1046 10.1046 11 9 11C7.89543 11 7 10.1046 7 9C7 7.89543 7.89543 7 9 7C10.1046 7 11 7.89543 11 9Z" stroke="#91683A" stroke-width="1.5" stroke-linecap="round" stroke-linejoin="round"/>
<path d="M4.02686 18.329L7.84756 14.5083C8.52759 13.9133 9.52213 13.8482 10.2739 14.3494L10.7831 14.6888C11.5077 15.1719 12.4618 15.1305 13.1419 14.5865L15.79 12.4679C16.465 11.9279 17.4052 11.8856 18.1227 12.3484C18.2022 12.3997 18.273 12.4632 18.3399 12.5302L19.9999 14.1901" stroke="#91683A" stroke-width="1.5" stroke-linecap="round" stroke-linejoin="round"/>
</svg>
