<svg width="28" height="28" viewBox="0 0 28 28" fill="none" xmlns="http://www.w3.org/2000/svg">
<g clip-path="url(#clip0_272_2211)">
<path d="M22.4918 0.799988H2.10503C1.38428 0.799988 0.799988 1.38428 0.799988 2.10503V15.2531C0.799988 15.9739 1.38428 16.5582 2.10503 16.5582H22.4918C23.2126 16.5582 23.7969 15.9739 23.7969 15.2531V2.10503C23.7969 1.38428 23.2126 0.799988 22.4918 0.799988Z" fill="#E57E25"/>
<path d="M23.2678 16.2797C23.4324 16.1538 23.5658 15.9917 23.6576 15.8058C23.7494 15.62 23.797 15.4155 23.7969 15.2083V2.14984C23.7969 1.79184 23.6546 1.4485 23.4015 1.19535C23.1484 0.942204 22.805 0.799988 22.447 0.799988H9.38556L23.24 16.2695L23.2678 16.2797Z" fill="#F29C1F"/>
<path d="M15.2113 0.799988H2.14984C1.79184 0.799988 1.4485 0.942204 1.19535 1.19535C0.942205 1.4485 0.799988 1.79184 0.799988 2.14984V15.2083C0.799845 15.4093 0.84469 15.6078 0.931235 15.7892C1.01778 15.9706 1.14383 16.1304 1.30014 16.2568L1.35686 16.2695L15.2113 0.799988Z" fill="#F29C1F"/>
<path d="M22.447 0.799988H2.14984C1.79184 0.799988 1.4485 0.942204 1.19535 1.19535C0.942204 1.4485 0.799988 1.79184 0.799988 2.14984L0.799988 2.66872L10.541 9.38097C11.0578 9.73714 11.6707 9.92786 12.2984 9.92786C12.9261 9.92786 13.539 9.73714 14.0559 9.38097L23.7969 2.66872V2.14984C23.7969 1.79184 23.6546 1.4485 23.4015 1.19535C23.1484 0.942204 22.805 0.799988 22.447 0.799988Z" fill="#F0C419"/>
<path d="M6.78775 27.2C6.70314 27.2 6.62057 27.1741 6.55123 27.1256C6.48188 27.0771 6.42912 27.0085 6.4001 26.929C6.37107 26.8496 6.36718 26.7631 6.38896 26.6813C6.41074 26.5996 6.45713 26.5265 6.52184 26.472L12.224 21.7326C12.2653 21.6965 12.3133 21.669 12.3653 21.6516C12.4174 21.6343 12.4723 21.6275 12.527 21.6317C12.5816 21.6358 12.6349 21.6509 12.6837 21.6759C12.7325 21.7008 12.7759 21.7353 12.8112 21.7772C12.8465 21.8192 12.8731 21.8677 12.8894 21.9201C12.9058 21.9724 12.9115 22.0275 12.9063 22.082C12.9011 22.1366 12.8851 22.1896 12.8592 22.2379C12.8333 22.2863 12.798 22.3289 12.7554 22.3634L7.05329 27.103C6.97903 27.1657 6.88495 27.2001 6.78775 27.2Z" fill="#FF5364"/>
<path d="M11.6243 26.3022C11.5404 26.3022 11.4585 26.2767 11.3895 26.2289C11.3204 26.1812 11.2676 26.1135 11.2381 26.035C11.2085 25.9564 11.2036 25.8707 11.224 25.7893C11.2445 25.7079 11.2892 25.6347 11.3524 25.5794L12.756 24.297C12.7967 24.2611 12.8441 24.2335 12.8955 24.2159C12.9469 24.1984 13.0012 24.1911 13.0554 24.1946C13.1096 24.198 13.1626 24.2122 13.2113 24.2362C13.26 24.2602 13.3035 24.2936 13.3393 24.3344C13.3751 24.3753 13.4024 24.4228 13.4198 24.4742C13.4372 24.5257 13.4442 24.58 13.4406 24.6342C13.4369 24.6884 13.4225 24.7413 13.3983 24.79C13.3741 24.8386 13.3406 24.8819 13.2996 24.9176L11.8962 26.1999C11.8211 26.266 11.7244 26.3023 11.6243 26.3022Z" fill="#35ACEF"/>
<path d="M13.1543 18.1429L15.7567 24.3766L20.5111 17.2444L27.1951 10.8756L13.1543 18.1429Z" fill="#285680"/>
<path d="M27.1951 10.8297L13.478 18.831L9.4418 17.7839L27.1951 10.8297Z" fill="#7ED0FC"/>
<path d="M22.3644 16.1212L15.7567 24.3766L16.5365 19.6482L22.3644 16.1212Z" fill="#35ACEF"/>
<path d="M27.1951 10.8756C27.1989 10.8639 27.2038 10.855 27.1951 10.8636L16.5364 19.6482L23.1392 21.4456L27.1951 10.8756Z" fill="#7ED0FC"/>
</g>
<defs>
<clipPath id="clip0_272_2211">
<rect width="26.4" height="26.4" fill="white" transform="translate(0.799988 0.799988)"/>
</clipPath>
</defs>
</svg>
