<svg width="24" height="24" viewBox="0 0 24 24" fill="none" xmlns="http://www.w3.org/2000/svg">
<g clip-path="url(#clip0_272_2229)">
<path d="M23.85 23.0198L19.6313 13.176C19.577 13.0496 19.4869 12.9418 19.372 12.866C19.2571 12.7903 19.1226 12.7499 18.9849 12.7499H4.92245C4.6412 12.7499 4.38704 12.9175 4.27628 13.176L0.0575294 23.0198C-0.140986 23.4829 0.198858 23.9999 0.703701 23.9999H23.2037C23.7074 23.9999 24.0489 23.4838 23.8501 23.0198H23.85Z" fill="#E0F4FE"/>
<path d="M23.2037 23.9999H11.9537V12.7499H18.985C19.2662 12.7499 19.5204 12.9177 19.6313 13.176L23.8501 23.0198C24.0489 23.4838 23.7076 23.9999 23.2037 23.9999H23.2037Z" fill="#BCDCFE"/>
<path d="M2.98629 19.9892L2.39815 21.127C2.39815 21.127 1.92921 22.2216 1.76974 22.5937H10.2563L11.1665 22.4846L6.75893 18.0549L2.98629 19.9892Z" fill="#159BE1"/>
<path d="M20.8305 19.7574L20.6065 19.021L18.5215 14.1562H16.0056L14.3031 14.1869L6.75897 18.0549L11.1665 22.4846L12.2448 22.5937H13.7078L15.3902 22.5466L20.8305 19.7574Z" fill="#5DC983"/>
<path d="M20.8305 19.7572L15.3902 22.5468L13.7078 22.5937H12.2448L11.9537 22.5642V15.3918L14.3031 14.1872L15.4404 14.1665L16.0056 14.1562H18.5213L20.6063 19.021L20.8305 19.7572ZM5.38603 14.1562C4.95502 15.162 3.26916 19.0949 3.26916 19.0949L2.98627 19.9892L14.3029 14.187L12.9194 14.1562H5.38603Z" fill="#0EAB61"/>
<path d="M14.3031 14.1871L11.9537 15.3918V14.1562H12.9193L14.3031 14.1871Z" fill="#0EAB61"/>
<path d="M20.8305 19.7574L15.3902 22.5466L16.7655 22.5937H22.1373C21.8122 21.8348 21.4871 21.076 21.1619 20.3172L20.8305 19.7574Z" fill="#159BE1"/>
<path d="M7.93709 18.286L12.2449 22.5937H10.2563L6.62159 18.959L2.40195 21.1181L3.26913 19.0949C3.38449 19.036 12.804 14.2152 12.9193 14.1562H16.0056L7.93709 18.286Z" fill="#FED941"/>
<path d="M11.9537 22.3026L12.2448 22.5937H11.9537V22.3026Z" fill="#FEB99E"/>
<path d="M16.0056 14.1562L15.1633 14.5874L11.9537 16.2298V14.6503C12.5312 14.3549 12.8974 14.1674 12.9194 14.1562L16.0056 14.1562ZM21.1619 20.317L16.7655 22.5937H13.7079L20.6064 19.0209L21.1619 20.317Z" fill="#FCBE29"/>
<path d="M11.9537 -6.10352e-05C8.5166 -6.10352e-05 5.62558 2.51947 5.62558 6.89056C5.62558 11.3213 11.1865 17.7672 11.4232 18.0395C11.7031 18.3614 12.204 18.362 12.4843 18.0395C12.721 17.7672 18.2818 11.3214 18.2818 6.89056C18.2818 2.55978 15.3378 -6.10352e-05 11.9537 -6.10352e-05ZM11.9537 8.43744C10.7906 8.43744 9.84433 7.49113 9.84433 6.32806C9.84433 5.165 10.7906 4.21869 11.9537 4.21869C13.1168 4.21869 14.0631 5.165 14.0631 6.32806C14.0631 7.49113 13.1168 8.43744 11.9537 8.43744Z" fill="#EE3616"/>
<path d="M11.9537 -6.10352e-05V4.21869C13.1168 4.21869 14.0631 5.16514 14.0631 6.32806C14.0631 7.49099 13.1168 8.43744 11.9537 8.43744V18.2812C12.1493 18.2812 12.3443 18.2006 12.4843 18.0393C14.5582 15.6553 18.2818 10.4626 18.2818 6.89056C18.2818 2.55978 15.3377 -6.10352e-05 11.9537 -6.10352e-05Z" fill="#CB0010"/>
</g>
<defs>
<clipPath id="clip0_272_2229">
<rect width="24" height="24" fill="white"/>
</clipPath>
</defs>
</svg>
