<svg width="24" height="24" viewBox="0 0 24 24" fill="none" xmlns="http://www.w3.org/2000/svg">
<path d="M10 5H4" stroke="white" stroke-width="1.5" stroke-linecap="round"/>
<path d="M14 5H20" stroke="white" stroke-width="1.5" stroke-linecap="round"/>
<path d="M16 12H4" stroke="white" stroke-width="1.5" stroke-linecap="round"/>
<path d="M8 19H20" stroke="white" stroke-width="1.5" stroke-linecap="round"/>
<path d="M8 19C8 17.8954 7.10457 17 6 17C4.89543 17 4 17.8954 4 19C4 20.1046 4.89543 21 6 21C7.10457 21 8 20.1046 8 19Z" stroke="white" stroke-width="1.5" stroke-linecap="round"/>
<path d="M20 12C20 10.8954 19.1046 10 18 10C16.8954 10 16 10.8954 16 12C16 13.1046 16.8954 14 18 14C19.1046 14 20 13.1046 20 12Z" stroke="white" stroke-width="1.5" stroke-linecap="round"/>
<path d="M14 5C14 3.89543 13.1046 3 12 3C10.8954 3 10 3.89543 10 5C10 6.10457 10.8954 7 12 7C13.1046 7 14 6.10457 14 5Z" stroke="white" stroke-width="1.5" stroke-linecap="round"/>
</svg>
