<svg width="52" height="52" viewBox="0 0 52 52" fill="none" xmlns="http://www.w3.org/2000/svg">
<path d="M12.8399 30.9312L11.1944 37.074L5.18016 37.2013C3.38278 33.8675 2.36328 30.0533 2.36328 26C2.36328 22.0805 3.31649 18.3844 5.00612 15.1299H5.00742L10.3618 16.1115L12.7073 21.4338C12.2164 22.865 11.9488 24.4013 11.9488 26C11.949 27.7351 12.2633 29.3975 12.8399 30.9312Z" fill="#FBBB00"/>
<path d="M49.2233 21.5845C49.4947 23.0143 49.6363 24.4909 49.6363 26C49.6363 27.6923 49.4584 29.3429 49.1194 30.9351C47.9688 36.3533 44.9623 41.0845 40.7974 44.4325L40.7961 44.4312L34.052 44.0871L33.0975 38.1286C35.8611 36.5079 38.0208 33.9715 39.1585 30.9351H26.5195V21.5845H39.3429H49.2233Z" fill="#518EF8"/>
<path d="M40.7962 44.4316L40.7975 44.4329C36.7469 47.6887 31.6014 49.6368 26.0001 49.6368C16.9988 49.6368 9.1729 44.6056 5.18066 37.2017L12.8404 30.9316C14.8365 36.2589 19.9755 40.0511 26.0001 40.0511C28.5897 40.0511 31.0158 39.3511 33.0975 38.129L40.7962 44.4316Z" fill="#28B446"/>
<path d="M41.0864 7.8053L33.4292 14.0741C31.2747 12.7274 28.7279 11.9494 25.9994 11.9494C19.8383 11.9494 14.6032 15.9156 12.7072 21.4339L5.00715 15.13H5.00586C8.93965 7.54558 16.8643 2.36377 25.9994 2.36377C31.7344 2.36377 36.9929 4.40665 41.0864 7.8053Z" fill="#F14336"/>
</svg>
