<svg width="104" height="79" viewBox="0 0 104 79" fill="none" xmlns="http://www.w3.org/2000/svg">
<path d="M72.2882 39.7466C71.8246 39.1398 70.9455 39.015 70.3288 39.4711C69.7122 39.9273 69.5853 40.7923 70.0489 41.399L71.7153 43.5851C71.9252 43.8605 71.8946 44.2435 71.6497 44.4845L71.0898 45.0354C70.7968 45.3237 70.3201 45.3022 70.0577 44.988L66.1302 40.349V33.9629C66.1302 33.2012 65.5047 32.5858 64.7306 32.5858C63.9565 32.5858 63.3311 33.2012 63.3311 33.9629V43.3614C63.3311 43.8304 63.4929 44.2866 63.7903 44.6524L68.3432 50.4317C68.5619 50.7114 68.7106 51.0299 68.7981 51.3656C68.8768 51.6625 69.1523 51.8647 69.4672 51.8647H75.2273C75.6122 51.8647 75.9271 51.5549 75.9271 51.1762V46.3565C75.9271 45.1645 75.5334 44.0069 74.8074 43.0515L72.2882 39.7466ZM88.1006 32.5858C87.3265 32.5858 86.701 33.2012 86.701 33.9629V40.349L82.7735 44.988C82.5111 45.2979 82.03 45.3194 81.7414 45.0354L81.1815 44.4845C80.9366 44.2435 80.906 43.8605 81.1159 43.5851L82.7823 41.399C83.2459 40.7923 83.1191 39.9273 82.5024 39.4711C81.8857 39.015 81.0066 39.1398 80.543 39.7466L78.0238 43.0515C77.2978 44.0069 76.9042 45.1645 76.9042 46.3565V51.1762C76.9042 51.5549 77.2191 51.8647 77.6039 51.8647H83.364C83.6745 51.8647 83.9544 51.6625 84.0331 51.3656C84.1206 51.0299 84.2693 50.7114 84.488 50.4317L89.0409 44.6524C89.3383 44.2866 89.5002 43.8304 89.5002 43.3614V33.9629C89.5002 33.2012 88.8747 32.5858 88.1006 32.5858Z" fill="white"/>
<path d="M39.3161 46.3383L36.5103 46.3309L36.4954 51.9424L39.3011 51.9499L39.3161 46.3383ZM68.6232 46.3383C58.0898 46.3548 51.7629 46.3714 39.3161 46.3383L39.3011 51.9499C51.7616 51.983 58.1001 51.9663 68.632 51.9499L68.6232 46.3383Z" fill="white"/>
<path d="M26.7687 38.5367L22.2581 40.2122L27.3325 43.0046L26.7687 38.5367ZM26.7687 38.5367L18.847 52.0727" stroke="white" stroke-width="4.30723" stroke-linecap="round"/>
<path d="M38.1807 13.4047V51.3819" stroke="white" stroke-width="5.61153" stroke-linecap="round" stroke-linejoin="round"/>
<path d="M38.1808 51.382C31.6006 58.9429 27.3779 58.8234 19.0107 51.382" stroke="white" stroke-width="5.61153"/>
<path d="M72.3023 51.9532H75.1081V46.3416H72.3023V51.9532ZM44.6748 51.9532H72.3023V46.3416H44.6748V51.9532Z" fill="white"/>
<path d="M62.9889 49.1478H52.2762M41.5635 49.1478H52.2762M52.2762 49.1478V39.6534" stroke="white" stroke-width="5.61153"/>
<path d="M53.0623 58.124L51.5287 59.6431L49.9951 58.124H53.0623Z" stroke="white" stroke-width="1.90792"/>
<path d="M10.32 70.704H11.376V72H10.16C9.24267 72 8.53333 71.7067 8.032 71.12C7.49867 71.7067 6.76267 72 5.824 72H0.32L0.992 70.704H3.328V64.496L4.704 63.76V70.704H5.712C6.82133 70.704 7.376 70.1227 7.376 68.96V62.416L8.768 61.68V68.976C8.768 69.5947 8.88533 70.0373 9.12 70.304C9.36533 70.5707 9.76533 70.704 10.32 70.704ZM15.9786 70.704H17.0346V72H15.8186C14.9333 72 14.2346 71.7173 13.7226 71.152C13.2106 71.7173 12.512 72 11.6266 72H10.4106V70.704H11.4666C12.512 70.704 13.0346 70.1707 13.0346 69.104V65.792L14.4106 65.056V69.104C14.4106 70.1707 14.9333 70.704 15.9786 70.704ZM12.1546 73.6C12.6666 73.6 12.9226 73.8667 12.9226 74.4C12.9226 74.9227 12.6666 75.184 12.1546 75.184C11.632 75.184 11.3706 74.9227 11.3706 74.4C11.3706 73.8667 11.632 73.6 12.1546 73.6ZM14.1866 73.6C14.6986 73.6 14.9546 73.8667 14.9546 74.4C14.9546 74.9227 14.6986 75.184 14.1866 75.184C13.664 75.184 13.4026 74.9227 13.4026 74.4C13.4026 73.8667 13.664 73.6 14.1866 73.6ZM21.6349 70.704H22.6909V72H21.4749C20.5895 72 19.8909 71.7173 19.3789 71.152C18.8669 71.7173 18.1682 72 17.2829 72H16.0669V70.704H17.1229C18.1682 70.704 18.6909 70.1707 18.6909 69.104V65.792L20.0669 65.056V69.104C20.0669 70.1707 20.5895 70.704 21.6349 70.704ZM19.2829 73.6C19.7949 73.6 20.0509 73.8613 20.0509 74.384C20.0509 74.9173 19.7949 75.184 19.2829 75.184C18.7602 75.184 18.4989 74.9173 18.4989 74.384C18.4989 73.8613 18.7602 73.6 19.2829 73.6ZM21.7231 72V70.704H23.1631C24.1978 70.704 24.7151 70.1707 24.7151 69.104V66.864L26.0911 66.128V69.104C26.0911 70.1707 26.6138 70.704 27.6591 70.704H28.3951C29.4405 70.704 29.9631 70.1707 29.9631 69.104V66.32L31.3391 65.6V69.104C31.3391 70.1707 31.8565 70.704 32.8911 70.704H33.6431C34.6885 70.704 35.2111 70.1707 35.2111 69.104V65.792L36.5871 65.056V69.152C36.5871 70.0587 36.3151 70.768 35.7711 71.28C35.2911 71.7493 34.6511 71.9893 33.8511 72H32.7471C31.8085 72 31.1098 71.6853 30.6511 71.056C30.1925 71.6747 29.5098 71.9893 28.6031 72H27.4991C26.5818 72 25.8831 71.6853 25.4031 71.056C24.9445 71.6853 24.2458 72 23.3071 72H21.7231ZM47.1256 70.704H48.1816V72H46.9656C46.4216 72 45.9523 71.8933 45.5576 71.68C45.4616 72.736 45.0936 73.5787 44.4536 74.208C43.867 74.784 43.131 75.072 42.2456 75.072C41.6056 75.072 40.9816 74.912 40.3736 74.592V73.392C40.9176 73.6907 41.4616 73.84 42.0056 73.84C42.6883 73.84 43.2216 73.6107 43.6056 73.152C43.9896 72.6933 44.1816 72.0587 44.1816 71.248V65.792L45.5576 65.056V65.072L45.5736 65.056V69.424C45.6696 70.2773 46.187 70.704 47.1256 70.704ZM52.7911 70.704H53.8471V72H52.6311C51.7458 72 51.0471 71.7173 50.5351 71.152C50.0231 71.7173 49.3245 72 48.4391 72H47.2231V70.704H48.2791C49.3245 70.704 49.8471 70.1707 49.8471 69.104V65.792L51.2231 65.056V69.104C51.2231 70.1707 51.7458 70.704 52.7911 70.704ZM48.9671 73.6C49.4791 73.6 49.7351 73.8667 49.7351 74.4C49.7351 74.9227 49.4791 75.184 48.9671 75.184C48.4445 75.184 48.1831 74.9227 48.1831 74.4C48.1831 73.8667 48.4445 73.6 48.9671 73.6ZM50.9991 73.6C51.5111 73.6 51.7671 73.8667 51.7671 74.4C51.7671 74.9227 51.5111 75.184 50.9991 75.184C50.4765 75.184 50.2151 74.9227 50.2151 74.4C50.2151 73.8667 50.4765 73.6 50.9991 73.6ZM57.7274 63.12C57.2047 63.12 56.9434 62.8533 56.9434 62.32C56.9434 61.7973 57.2047 61.536 57.7274 61.536C58.2394 61.536 58.4954 61.7973 58.4954 62.32C58.4954 62.8533 58.2394 63.12 57.7274 63.12ZM63.3114 70.704H64.3514V72H63.2954C62.4314 72 61.738 71.904 61.2154 71.712C60.6927 71.5093 60.2074 71.1573 59.7594 70.656C58.4154 71.552 56.8474 72 55.0554 72H52.8794V70.704H55.0714C57.2367 70.704 58.9487 69.9893 60.2074 68.56C59.322 66.928 58.2447 66.112 56.9754 66.112C56.1114 66.112 55.2207 66.5707 54.3034 67.488V66.208C55.1994 65.3013 56.1487 64.848 57.1514 64.848C57.9727 64.848 58.7674 65.1467 59.5354 65.744C60.3034 66.3307 60.9807 67.1733 61.5674 68.272V68.976C61.2367 69.392 60.922 69.728 60.6234 69.984C61.1994 70.464 62.0954 70.704 63.3114 70.704ZM68.851 70.704H69.907V72H68.691C67.7737 72 67.0643 71.7067 66.563 71.12C66.0297 71.7067 65.2937 72 64.355 72H63.395V70.704H64.243C65.3523 70.704 65.907 70.1227 65.907 68.96V62.416L67.299 61.68V68.976C67.299 69.5947 67.4163 70.0373 67.651 70.304C67.8963 70.5707 68.2963 70.704 68.851 70.704ZM68.9419 72V70.704H69.7899C70.8992 70.704 71.4539 70.1227 71.4539 68.96V62.416L72.8459 61.68V68.976C72.8459 69.9253 72.5632 70.6773 71.9979 71.232C71.4645 71.744 70.7659 72 69.9019 72H68.9419ZM83.2476 63.12C82.725 63.12 82.4636 62.8533 82.4636 62.32C82.4636 61.7973 82.725 61.536 83.2476 61.536C83.7596 61.536 84.0156 61.7973 84.0156 62.32C84.0156 62.8533 83.7596 63.12 83.2476 63.12ZM83.0396 71.616C82.0263 72.224 81.413 72.64 81.1996 72.864C80.773 73.28 80.5596 73.7973 80.5596 74.416C80.5596 75.0987 80.7943 75.648 81.2636 76.064C81.733 76.4907 82.341 76.704 83.0876 76.704C84.261 76.6933 85.2423 76.4107 86.0316 75.856V77.152C85.1143 77.7173 84.1116 78 83.0236 78C81.8396 78 80.8903 77.6107 80.1756 76.832C79.557 76.1707 79.2476 75.3547 79.2476 74.384C79.2476 73.6587 79.4396 73.04 79.8236 72.528C80.2076 72.0267 80.885 71.4987 81.8556 70.944C80.981 70.304 80.085 69.3013 79.1676 67.936V67.232C79.6903 66.4853 80.3036 65.904 81.0076 65.488C81.7116 65.0613 82.4263 64.848 83.1516 64.848C83.8663 64.848 84.581 65.0667 85.2956 65.504C86.0103 65.9307 86.6236 66.5173 87.1356 67.264V67.936C86.5916 68.7573 85.6903 69.6693 84.4316 70.672C84.6663 70.6933 84.853 70.704 84.9916 70.704H89.2156L89.2316 72H84.8796C84.2503 72 83.637 71.872 83.0396 71.616ZM80.4476 67.6C81.4076 68.912 82.2823 69.7813 83.0716 70.208C84.1063 69.504 85.0343 68.624 85.8556 67.568C85.0663 66.608 84.165 66.1227 83.1516 66.112C82.1276 66.112 81.2263 66.608 80.4476 67.6ZM90.062 63.232C89.5393 63.232 89.278 62.9653 89.278 62.432C89.278 61.9093 89.5393 61.648 90.062 61.648C90.574 61.648 90.83 61.9093 90.83 62.432C90.83 62.9653 90.574 63.232 90.062 63.232ZM92.11 63.232C91.5873 63.232 91.326 62.9653 91.326 62.432C91.326 61.9093 91.5873 61.648 92.11 61.648C92.622 61.648 92.878 61.9093 92.878 62.432C92.878 62.9653 92.622 63.232 92.11 63.232ZM93.838 70.704H94.894V72H93.678C92.7927 72 92.094 71.7173 91.582 71.152C91.07 71.7173 90.3713 72 89.486 72H88.27V70.704H89.326C90.3713 70.704 90.894 70.1707 90.894 69.104V65.792L92.27 65.056V69.104C92.27 70.1707 92.7927 70.704 93.838 70.704ZM93.9262 72V70.704H94.9823C96.0276 70.704 96.5503 70.1707 96.5503 69.104V65.792L97.9263 65.056V69.152C97.9263 70.0587 97.6543 70.7733 97.1103 71.296C96.6089 71.7653 95.9529 72 95.1423 72H93.9262ZM96.5023 75.184C95.9796 75.184 95.7183 74.9173 95.7183 74.384C95.7183 73.8613 95.9796 73.6 96.5023 73.6C97.0143 73.6 97.2703 73.8613 97.2703 74.384C97.2703 74.9173 97.0143 75.184 96.5023 75.184ZM100.799 72V62.416L102.175 61.68V72H100.799Z" fill="white"/>
</svg>
