<svg width="40" height="40" viewBox="0 0 40 40" fill="none" xmlns="http://www.w3.org/2000/svg">
<rect width="40" height="40" rx="8" fill="#F4F0EB"/>
<g clip-path="url(#clip0_314_405)">
<path d="M22 21H24V23H22V21ZM26 23H28V21H26V23ZM22 27H24V25H22V27ZM26 27H28V25H26V27ZM22 15H24V13H22V15ZM26 15H28V13H26V15ZM22 19H24V17H22V19ZM26 19H28V17H26V19ZM32 11V32H8V16.829C8 16.028 8.312 15.274 8.879 14.707L11.586 12C12.875 10.71 15.125 10.71 16.414 12L18 13.586V11C18 9.346 19.346 8 21 8H29C30.654 8 32 9.346 32 11ZM18 16.829C18 16.562 17.896 16.31 17.707 16.121L15 13.414C14.474 12.888 13.526 12.888 13 13.414L10.293 16.121C10.104 16.31 10 16.561 10 16.829V30H18V16.829ZM30 11C30 10.449 29.551 10 29 10H21C20.449 10 20 10.449 20 11V30H30V11ZM13 23H15V21H13V23ZM13 19H15V17H13V19ZM13 27H15V25H13V27Z" fill="#91683A"/>
</g>
<defs>
<clipPath id="clip0_314_405">
<rect width="24" height="24" fill="white" transform="translate(8 8)"/>
</clipPath>
</defs>
</svg>
