<svg width="20" height="21" viewBox="0 0 20 21" fill="none" xmlns="http://www.w3.org/2000/svg">
<path d="M17.4996 16.4887V14.2306C17.5088 13.8614 17.3817 13.5017 17.1424 13.22C16.4679 12.4255 14.1546 11.9173 13.2376 12.1125C12.5228 12.2647 12.0227 12.9823 11.5338 13.4703C9.64559 12.3987 8.08221 10.8385 7.00856 8.954C7.49747 8.46607 8.21662 7.96697 8.36909 7.25357C8.56434 6.33981 8.05683 4.04124 7.26782 3.36403C6.9903 3.12583 6.63545 2.99647 6.26943 3.00007H4.00681C3.14471 3.00088 2.42746 3.77412 2.50595 4.64099C2.50006 12.1125 8.33342 18 15.8554 17.9941C16.7269 18.0727 17.5031 17.3519 17.4996 16.4887Z" stroke="#91683A" stroke-width="1.5" stroke-linecap="round" stroke-linejoin="round"/>
<path d="M12.0833 5.91669C12.6976 6.03654 13.3074 6.30745 13.75 6.75002C14.1926 7.19259 14.4635 7.80239 14.5833 8.41669" stroke="#91683A" stroke-width="1.5" stroke-linecap="round" stroke-linejoin="round"/>
<path d="M12.5 3C13.7762 3.14178 14.9247 3.75922 15.8333 4.66667C16.7419 5.57411 17.3566 6.72391 17.5 8" stroke="#91683A" stroke-width="1.5" stroke-linecap="round" stroke-linejoin="round"/>
</svg>
